<?xml version="1.0" standalone="no"?><!DOCTYPE svg PUBLIC "-//W3C//DTD SVG 1.1//EN" "http://www.w3.org/Graphics/SVG/1.1/DTD/svg11.dtd"><svg t="1743236866867" class="icon" viewBox="0 0 1024 1024" version="1.1" xmlns="http://www.w3.org/2000/svg" p-id="9698" xmlns:xlink="http://www.w3.org/1999/xlink" width="200" height="200"><path d="M512 940c-18.5 0-36.9-1.2-54.8-3.4-13.6-1.7-27.2-4.1-40.2-7.1h-0.1c-38-8.6-75-22.6-109.4-41.4h-74.1c52 38.5 112 66.2 174.7 80.4 14.3 3.3 29.2 6 44.1 7.8 19.5 2.5 39.7 3.8 59.8 3.8 100.8 0 198.3-32.4 278.7-92h-74.1C654.2 921.9 584 940 512 940zM167 234h19.5c7.3-8.5 14.9-16.7 22.9-24.7 39.3-39.3 85-70.1 136-91.7C398.2 95.3 454.2 84 512 84c58.3 0 115.7 11.8 168.7 34.8 6.8-2 13.8-3.6 20.8-4.8 0 0 0.7-0.2 1-0.2 1-0.2 1.9-0.3 2.5-0.4 0.7-0.1 1.6-0.2 2.6-0.3 1-0.1 1.8-0.2 2.6-0.2 0.7-0.1 1.5-0.1 2.5-0.1h0.9c3.9-6.2 8.8-11.7 14.5-16.1C661.5 62.2 587.5 44 512 44c-63.2 0-124.5 12.4-182.1 36.8-55.8 23.6-105.8 57.3-148.8 100.3-19.6 19.5-37.2 40.5-52.8 62.8 11.5-6.2 24.7-9.8 38.7-9.9zM906.4 344.1c-0.1-0.3-0.1-0.7-0.2-1.1-0.1-0.2-0.1-0.5-0.2-0.8s-0.2-0.7-0.3-1l-0.3-0.9-0.3-0.9c-0.1-0.3-0.3-0.7-0.4-1-0.1-0.3-0.3-0.5-0.4-0.8-0.2-0.4-0.3-0.7-0.5-1-0.1-0.2-0.3-0.5-0.4-0.7l-0.6-0.9c-0.1-0.2-0.3-0.5-0.5-0.7-0.2-0.3-0.4-0.5-0.6-0.8l-0.7-0.7c-0.2-0.3-0.4-0.5-0.6-0.7-0.3-0.2-0.5-0.5-0.8-0.7-0.2-0.1-0.4-0.3-0.6-0.5-0.3-0.3-0.6-0.5-0.9-0.7-0.2-0.2-0.5-0.3-0.7-0.5l-0.9-0.6c-0.3-0.1-0.5-0.3-0.8-0.4-0.3-0.1-0.6-0.3-0.9-0.4-0.3-0.1-0.6-0.3-0.9-0.4-0.3-0.1-0.5-0.2-0.8-0.3-0.4-0.2-0.7-0.3-1.1-0.4-0.3-0.1-0.5-0.1-0.8-0.2l-1.2-0.3c-0.1-0.1-0.2-0.1-0.3-0.1-0.2-0.1-0.4-0.1-0.6-0.1-0.4 0-0.7-0.1-1.1-0.1-0.4-0.1-0.7-0.1-1.1-0.1H732.8V173.2v-0.6c-0.1-0.4-0.1-0.7-0.1-1.1s0-0.7-0.1-1.1c-0.1-0.2-0.1-0.4-0.1-0.6-0.1-0.1-0.1-0.2-0.1-0.3l-0.3-1.2c-0.1-0.2-0.1-0.5-0.2-0.7-0.1-0.4-0.3-0.7-0.4-1.1-0.1-0.3-0.2-0.5-0.3-0.8-0.1-0.4-0.3-0.7-0.4-1-0.1-0.3-0.3-0.6-0.4-0.9-0.2-0.3-0.3-0.5-0.5-0.8-0.1-0.3-0.3-0.6-0.5-0.9-0.2-0.3-0.3-0.5-0.5-0.7-0.3-0.3-0.5-0.6-0.7-0.9-0.1-0.2-0.3-0.4-0.5-0.6-0.2-0.3-0.4-0.5-0.7-0.8l-0.6-0.6c-0.3-0.2-0.5-0.5-0.8-0.7s-0.5-0.4-0.8-0.6c-0.2-0.2-0.4-0.4-0.7-0.6l-0.9-0.6c-0.2-0.2-0.4-0.4-0.7-0.5-0.3-0.2-0.6-0.3-0.9-0.5-0.3-0.2-0.5-0.3-0.8-0.4-0.4-0.2-0.7-0.3-1-0.4l-0.9-0.3-0.9-0.3c-0.3-0.1-0.7-0.2-1-0.3-0.3 0-0.5-0.1-0.8-0.1-0.4-0.1-0.8-0.2-1.2-0.2-0.3-0.1-0.5-0.1-0.8-0.1-0.4-0.1-0.8-0.1-1.2-0.1H712.1c-0.4 0.1-0.7 0.1-1.1 0.1-0.4 0-0.7 0-1.1 0.1-0.2 0.1-0.4 0.1-0.6 0.1-0.2 0-0.4 0.1-0.6 0.1-38.8 6.8-74.2 27.2-99.9 57.3-15.9 18.6-27.4 40.3-34 63.6H167c-22.8 0-41.3 18.5-41.3 41.3v425.5c0 22.8 18.5 41.3 41.3 41.3h0.5c0.9 0.1 1.8 0.1 2.8 0.1h7.2v17.5H137c0 26.6 21.6 48.3 48.3 48.3h638.9c26.8 0 48.3-21.6 48.3-48.3h-39.4v-17.5h7.2c1 0 1.9 0 2.8-0.1h0.5c22.8 0 41.3-18.6 41.3-41.5V406.8c10.4-17.7 17.5-37.1 21-57.5 0.1-0.2 0.1-0.4 0.1-0.6 0-0.4 0.1-0.7 0.1-1.1 0-0.4 0-0.8 0.5-0.6v-0.6-0.3c0-0.4-0.1-0.8-0.1-1.2-0.1-0.3-0.1-0.5-0.1-0.8z m-288.3 96.7c32.1 32.1 74.8 49.8 120.2 49.8 18.8 0 37.3-3.1 54.8-9.1v208.6h-33c0.1-0.7 0.1-1.3 0.1-2v-62.6c0-11-8.8-20-19.8-20s-20 9-20 20v62.6c0 0.7 0 1.3 0.1 2h-11.8c0.1-0.7 0.1-1.3 0.1-2v-91.4c0-11-9-20-20-20s-20 9-20 20v91.4c0 0.7 0 1.3 0.1 2h-45.7c0.1-0.7 0.1-1.3 0.1-2V502.4c0-11-9-20-20-20s-20 9-20 20v185.7c0 0.7 0 1.3 0.1 2h-11.8c0.1-0.7 0.1-1.3 0.1-2V432.5c0-11-9-20-20-20s-20 9-20 20v255.6c0 0.7 0 1.3 0.1 2h-45.9c0.2-1.2 0.3-2.4 0.3-3.6V575.4c0-11-9-20-20-20s-20 9-20 20v111.1c0 1.2 0.1 2.4 0.3 3.6h-12.4c0.2-1.2 0.3-2.4 0.3-3.6V533.6c0-11-9-20-20-20s-20 9-20 20v152.9c0 1.2 0.1 2.4 0.3 3.6h-45.8V521.5c0-11-9-20-20-20s-20 9-20 20v168.6h-11.7V463.8c0-11-9-20-20-20s-20 9-20 20v226.3h-39.7V365.9h356.9c7.7 28 22.6 53.8 43.7 74.9z m175 358.9H217.5v-17.5h575.6v17.5z m51.8-62.1c0 2.5-1.9 4.1-3.8 4.5H169.5c-2.1-0.4-3.8-2.3-3.8-4.5V318.9c0-2.5 2.1-4.6 4.6-4.6h398.1c-0.1 2.1-0.1 4.2-0.1 6.3 0 1.8 0 3.5 0.1 5.3H197.5c-11 0-20 9-20 20v364.3c0 11 9 20 20 20h615.6c11 0 20-9 20-20V461.8c4-2.7 8-5.6 11.8-8.7v284.5z m-22.3-318c-23.4 20-53.4 31-84.3 31-71.7 0-130-58.3-130-130 0-30.9 11-60.8 30.9-84.2 14.4-17 32.9-29.9 53.5-37.6v147.1c0 11 9 20 20 20h147.5c-7.7 20.6-20.6 39.2-37.6 53.7zM44 512c0 55.4 9.6 109.7 28.5 161.2 4 10.9 8.4 21.6 13.2 32.1V550.4C84.6 537.7 84 524.9 84 512s0.6-25.8 1.7-38.5V318.7c-1.7 3.7-3.3 7.4-4.9 11.2C56.4 387.5 44 448.8 44 512zM979.4 488.5c-0.5-11.2-1.5-22-2.8-33.1-4.6-38.6-13.9-76-27.8-111.9-0.9 0.6-1.7 1.2-2.6 1.7v0.6c0 1 0 1.8-0.1 2.4 0 0.7-0.1 1.6-0.2 2.6s-0.2 1.8-0.3 2.5-0.2 1.5-0.3 2.5c-3.2 19.1-9 37.4-17.4 54.9 3.9 16.2 6.9 32.7 8.9 49.5 1.3 10.1 2.1 20 2.6 30.2v0.1c0.4 7.1 0.6 14.3 0.6 21.4 0 38.5-5.1 76.4-15.1 113.1v107.4c10-18.6 18.6-37.9 26-57.8C970.2 622.7 980 568 980 512c0-7.8-0.2-15.7-0.6-23.5z" fill="#006EF2" p-id="9699"></path><path d="M934.7 294.2c0-45.4-17.7-88.1-49.7-120.2-32.1-32.1-74.8-49.8-120.2-49.8-11 0-20 9-20 20v150c0 11 9 20 20 20h149.9c11 0 20-9 20-20z m-88.4-20c-0.9-0.1-1.8-0.1-2.7-0.1h-58.9V165.7c55.7 8.7 99.9 52.8 108.5 108.5h-46.9z" fill="#006EF2" p-id="9700"></path></svg>